<svg xmlns="http://www.w3.org/2000/svg" xmlns:v="https://svgstorm.com"
viewBox = "0 0 546 457"
width="546"
height="457">
<g fill="None" fill-opacity="0.0" stroke="black" stroke-width="1"><path d="
M 0.00 457.00 
L 546.00 457.00
L 546.00 0.00
L 0.00 0.00
L 0.00 457.00
M 256.00 106.00 
C 260.82 107.52 262.36 110.23 265.00 114.00
C 265.33 114.40 268.83 117.95 269.00 118.00
C 274.31 119.21 275.60 115.36 278.00 112.00
C 279.31 110.17 280.93 107.96 283.00 107.00
C 284.08 106.50 285.76 106.17 287.00 106.00
C 291.76 104.66 298.31 104.52 303.00 106.00
C 311.72 108.76 313.35 115.72 314.00 124.00
C 314.19 124.92 314.81 126.58 315.00 128.00
C 316.35 137.99 316.53 149.19 319.00 159.00
C 319.27 159.70 320.68 160.70 320.00 162.00
C 325.50 162.65 332.33 160.68 337.00 163.00
C 350.58 163.27 356.45 168.62 368.25 175.75 C 380.04 182.89 362.81 190.01 352.32 192.32 C 341.83 194.64 326.49 199.45 315.00 200.00
C 315.00 203.67 315.00 207.33 315.00 211.00
C 325.43 213.66 340.76 207.01 350.00 212.00
C 357.61 216.10 343.79 228.28 340.25 234.25 C 336.70 240.21 327.88 250.18 325.00 257.00
C 335.10 257.30 343.69 262.82 352.00 268.00
C 354.98 270.13 357.93 273.05 360.00 276.00
C 366.27 284.95 370.57 294.71 371.00 306.00
C 371.35 308.48 374.09 318.03 371.00 320.00
C 370.40 320.38 364.60 320.38 364.00 320.00
C 361.47 318.39 363.16 308.93 363.00 306.00
C 362.51 296.99 359.36 289.20 354.00 282.00
C 351.84 279.52 348.42 276.11 346.00 274.00
C 339.45 269.13 332.25 265.45 324.00 265.00
C 319.63 264.76 314.32 264.38 310.00 265.00 C 305.68 265.62 298.95 263.29 295.00 265.00
C 290.43 267.92 288.26 276.45 285.23 281.23 C 282.20 286.01 277.84 293.57 276.00 299.00
C 275.18 303.18 278.56 317.73 275.00 320.00
C 274.40 320.38 268.60 320.38 268.00 320.00
C 264.59 317.82 267.71 303.96 267.00 300.00
C 265.25 294.45 261.39 287.77 258.08 282.92 C 254.76 278.08 253.05 270.05 249.00 266.00
C 243.60 262.14 226.68 264.75 220.00 265.00
C 211.47 265.33 202.84 268.92 196.00 274.00
C 193.87 275.86 190.81 278.92 189.00 281.00
C 184.40 287.19 180.73 294.29 180.00 302.00
C 179.81 303.96 179.15 306.68 179.00 308.00
C 178.89 312.00 179.08 316.00 179.00 320.00
C 170.37 322.72 170.20 315.54 171.00 309.00
C 171.05 306.41 171.65 303.93 172.00 302.00
C 172.83 292.84 176.50 284.40 182.00 277.00
C 184.51 273.63 187.76 270.55 191.00 268.00
C 198.53 262.06 207.35 257.60 217.00 257.00
C 214.24 248.99 206.09 242.16 202.25 234.75 C 198.40 227.35 187.34 219.70 192.00 212.00
C 200.18 206.10 217.43 214.34 227.00 211.00
C 227.00 207.33 227.00 203.67 227.00 200.00
C 223.42 196.75 214.09 199.09 208.99 197.01 C 203.89 194.93 196.73 194.86 190.98 193.02 C 185.22 191.18 181.75 188.33 175.31 186.69 C 168.86 185.06 167.00 178.38 173.70 175.70 C 180.39 173.01 181.83 170.78 187.70 167.70 C 193.56 164.62 198.22 163.14 205.00 163.00
C 207.98 162.64 219.31 163.63 222.00 162.00
C 223.03 160.98 222.81 160.53 223.00 159.00
C 223.18 157.55 223.83 155.90 224.00 155.00
C 224.52 147.04 226.10 139.79 227.00 132.00
C 227.17 130.53 227.83 128.92 228.00 128.00
C 228.36 122.60 228.25 116.73 231.00 112.00
C 232.11 110.10 234.06 107.98 236.00 107.00
C 237.49 106.25 238.31 106.18 240.00 106.00
C 244.86 104.85 251.20 104.48 256.00 106.00
M 306.00 309.00 
C 310.18 311.30 309.45 314.22 306.00 316.00
C 302.48 317.82 293.44 317.90 290.00 316.00
C 286.36 313.99 286.43 310.97 290.00 309.00
C 293.43 307.11 302.63 307.14 306.00 309.00
M 326.00 309.00 
C 329.92 310.28 328.94 314.46 326.00 316.00
C 323.73 317.18 322.23 317.20 320.00 316.00
C 315.76 314.71 316.96 310.63 320.00 309.00
C 322.22 307.81 323.81 307.76 326.00 309.00
M 111.00 355.00 
C 111.55 360.31 103.66 356.25 102.00 359.00
C 104.46 359.27 107.27 358.20 109.00 360.00
C 109.40 363.89 104.40 362.92 102.00 363.00
C 102.65 366.10 101.77 369.07 98.00 368.00
C 98.00 363.67 98.00 359.33 98.00 355.00
C 99.80 353.12 109.25 353.17 111.00 355.00
M 116.00 367.00 
C 115.33 365.94 115.34 356.07 116.00 355.00
C 119.15 349.94 121.84 365.76 120.00 368.00
C 118.72 367.72 116.50 368.76 116.00 367.00
M 131.00 358.00 
C 132.68 357.61 133.31 355.25 135.00 355.00
C 136.21 354.82 137.47 354.78 138.00 356.00
C 138.58 357.33 134.14 359.35 134.00 360.00
C 133.77 361.69 134.44 362.56 135.00 364.00
C 135.71 365.26 138.85 365.73 138.00 368.00
C 137.00 368.00 136.00 368.00 135.00 368.00
C 133.42 366.86 132.06 364.99 130.00 365.00
C 128.94 367.17 126.90 368.96 125.00 367.00
C 124.92 366.99 125.00 366.00 125.00 366.00
C 125.48 365.01 128.94 362.47 129.00 362.00
C 129.07 360.50 127.83 359.13 127.00 358.00
C 126.25 356.99 124.07 356.62 124.00 355.00
C 126.64 352.46 129.80 355.62 131.00 358.00
M 171.00 356.00 
C 172.15 357.00 174.96 364.30 175.00 366.00
C 175.09 369.75 174.31 366.68 172.00 366.00
C 167.32 364.79 164.93 365.73 161.00 368.00
C 162.08 363.44 164.18 358.60 167.00 355.00
C 169.11 353.80 169.42 354.07 171.00 356.00
M 192.00 355.00 
C 192.30 357.91 189.21 358.29 187.00 358.00
C 186.39 361.17 188.25 365.65 186.00 368.00
C 185.04 368.20 183.97 367.84 183.00 368.00
C 183.00 364.67 183.00 361.33 183.00 358.00
C 181.45 357.60 178.75 358.95 178.00 357.00
C 177.83 356.56 177.77 355.35 178.00 355.00
C 179.39 352.86 190.45 353.39 192.00 355.00
M 215.00 355.00 
C 215.50 355.00 216.00 355.00 216.00 355.00
C 216.84 355.82 217.22 356.60 217.00 358.00
C 214.33 358.00 211.67 358.00 209.00 358.00
C 207.93 358.80 207.60 361.84 208.00 363.00
C 209.81 365.65 211.17 364.41 214.00 365.00
C 220.78 366.41 212.32 368.76 208.00 367.00
C 204.42 365.55 203.14 363.31 204.00 359.00
C 204.33 357.35 205.13 355.53 207.00 355.00
C 207.46 354.87 208.00 355.00 208.00 355.00
C 209.98 353.54 213.06 353.56 215.00 355.00
M 225.00 368.00 
C 224.19 368.39 222.85 367.69 222.00 368.00
C 222.00 363.67 222.00 359.33 222.00 355.00
C 225.02 350.16 228.67 366.22 225.00 368.00
M 241.00 355.00 
C 244.24 356.67 245.64 364.41 242.00 367.00
C 239.90 368.50 232.96 368.96 231.00 367.00
C 224.15 360.15 232.96 350.84 241.00 355.00
M 262.00 355.00 
C 265.80 358.80 254.73 357.33 254.00 359.00
C 256.27 359.06 258.41 358.48 260.00 360.00
C 264.04 363.86 252.84 361.64 254.00 365.00
C 256.02 366.14 259.98 363.86 262.00 365.00
C 265.72 367.10 252.03 369.61 250.00 368.00
C 250.00 363.67 250.00 359.33 250.00 355.00
C 251.78 353.14 260.25 353.25 262.00 355.00
M 278.00 355.00 
C 284.38 358.30 277.16 362.58 281.00 367.00
C 278.72 370.58 276.47 364.65 275.00 364.00
C 274.51 363.85 272.47 363.81 272.00 364.00
C 271.08 364.65 272.67 367.02 271.00 368.00
C 270.26 368.44 268.79 367.65 268.00 368.00
C 268.64 363.83 266.71 358.34 269.00 355.00
C 271.05 352.95 275.91 353.92 278.00 355.00
M 297.00 355.00 
C 298.81 356.16 300.10 356.97 297.00 358.00
C 295.20 358.60 292.85 357.55 291.00 358.00
C 292.32 359.07 294.53 359.25 296.00 360.00
C 296.49 359.93 297.00 360.00 297.00 360.00
C 299.88 360.75 300.04 363.24 299.00 365.00
C 298.01 366.69 297.67 366.37 296.00 367.00
C 294.06 367.74 291.58 368.47 289.00 368.00
C 286.71 367.98 285.59 366.26 286.00 364.00
C 288.84 363.41 292.98 365.22 295.00 363.00
C 293.00 363.70 291.33 362.52 290.00 362.00
C 288.38 361.37 287.97 361.65 287.00 360.00
C 285.96 358.23 286.20 355.73 289.00 355.00
C 289.47 354.88 290.00 355.00 290.00 355.00
C 292.07 353.47 294.97 353.69 297.00 355.00
M 317.00 355.00 
C 320.81 358.81 309.73 357.33 309.00 359.00
C 311.27 359.06 313.41 358.48 315.00 360.00
C 319.04 363.86 307.84 361.64 309.00 365.00
C 311.02 366.14 314.98 363.86 317.00 365.00
C 320.72 367.11 307.03 369.61 305.00 368.00
C 305.00 363.67 305.00 359.33 305.00 355.00
C 306.79 353.14 315.25 353.25 317.00 355.00
M 335.00 355.00 
C 335.51 355.45 336.39 356.02 336.00 357.00
C 335.13 359.22 330.75 357.35 329.00 358.00
C 323.52 360.83 327.21 366.12 333.00 365.00
C 332.54 362.72 333.11 360.24 336.00 361.00
C 337.93 361.94 337.13 365.90 336.00 367.00
C 335.98 367.10 335.00 367.00 335.00 367.00
C 332.55 368.81 329.39 367.91 327.00 367.00
C 325.11 366.28 324.03 366.00 323.00 364.00
C 321.81 361.71 321.83 360.25 323.00 358.00
C 323.63 355.89 325.37 355.62 327.00 355.00
C 329.31 354.12 332.75 353.04 335.00 355.00
M 356.00 364.00 
C 355.31 365.36 354.31 366.34 353.00 367.00
C 350.45 368.29 348.49 368.08 346.00 367.00
C 343.63 365.97 344.04 366.40 343.00 364.00
C 342.21 362.18 340.59 356.57 343.00 355.00
C 343.35 354.77 344.65 354.77 345.00 355.00
C 347.19 356.43 345.21 359.89 346.00 362.00
C 347.18 364.28 349.37 366.60 352.22 364.22 C 355.07 361.84 351.35 357.64 353.00 355.00
C 356.17 349.91 357.08 361.88 356.00 364.00
M 372.00 355.00 
C 373.64 355.62 374.00 355.37 375.00 357.00
C 376.25 359.04 375.57 359.13 375.00 361.00
C 374.80 362.42 373.95 363.31 374.00 365.00
C 374.02 365.48 377.25 366.55 376.00 368.00
C 374.17 368.12 371.54 368.26 371.00 366.00
C 369.05 364.92 369.04 363.58 366.00 364.00
C 366.72 366.54 364.50 368.64 362.00 368.00
C 362.64 363.83 360.71 358.34 363.00 355.00
C 365.18 352.82 369.80 354.17 372.00 355.00
M 385.00 355.00 
C 385.28 358.11 386.12 365.97 384.00 368.00
C 383.04 368.20 381.97 367.84 381.00 368.00
C 381.00 363.67 381.00 359.33 381.00 355.00
C 381.69 353.58 384.30 353.55 385.00 355.00
M 400.00 355.00 
C 402.64 356.08 402.96 356.31 404.00 359.00
C 404.85 361.21 405.13 361.79 404.00 364.00
C 403.43 366.11 401.59 366.40 400.00 367.00
C 392.34 369.91 384.21 361.79 391.00 355.00
C 393.15 352.85 397.82 354.11 400.00 355.00
M 419.00 357.00 
C 421.01 360.15 422.10 364.45 423.00 368.00
C 419.06 364.06 413.48 364.50 409.00 368.00
C 409.35 364.06 411.46 360.61 413.00 357.00
C 415.43 353.38 416.58 353.20 419.00 357.00
M 438.00 355.00 
C 439.89 355.72 440.97 356.00 442.00 358.00
C 443.19 360.29 443.17 361.75 442.00 364.00
C 441.37 366.11 439.63 366.38 438.00 367.00
C 435.69 367.88 432.95 368.27 430.00 368.00
C 426.58 367.27 427.38 356.62 429.00 355.00
C 431.18 352.82 435.80 354.16 438.00 355.00
M 147.00 365.00 
C 148.81 366.27 153.07 363.89 155.00 365.00
C 156.15 365.67 155.97 366.72 156.00 368.00
C 151.67 368.00 147.33 368.00 143.00 368.00
C 143.64 363.83 141.71 358.34 144.00 355.00
C 144.35 354.77 145.65 354.77 146.00 355.00
C 148.60 356.69 146.11 362.37 147.00 365.00
M 321.00 396.00 
C 321.86 396.82 320.33 397.72 320.00 398.00
C 315.09 402.27 302.87 397.95 296.00 399.00 C 289.13 400.05 278.24 398.99 271.00 399.00 C 263.76 399.01 252.88 400.03 246.00 399.00 C 239.12 397.97 226.88 402.24 222.00 398.00
C 221.49 397.55 220.61 396.98 221.00 396.00
C 222.28 392.75 233.08 395.78 237.00 395.00 C 240.92 394.22 249.25 395.29 254.00 395.00 C 258.75 394.71 266.01 395.00 271.00 395.00 C 275.99 395.00 283.23 394.71 288.00 395.00 C 292.77 395.29 301.05 394.22 305.00 395.00 C 308.95 395.78 319.72 392.75 321.00 396.00 Z"/>
</g>
<g fill="None" fill-opacity="0.0" stroke="black" stroke-width="1"><path d="
M 240.00 106.00 
C 244.69 105.50 251.36 105.17 256.00 106.00
C 251.20 104.48 244.86 104.85 240.00 106.00 Z"/>
</g>
<g fill="None" fill-opacity="0.0" stroke="black" stroke-width="1"><path d="
M 287.00 106.00 
C 291.54 105.36 298.50 105.19 303.00 106.00
C 298.31 104.52 291.76 104.66 287.00 106.00 Z"/>
</g>
<g fill="None" fill-opacity="0.0" stroke="black" stroke-width="1"><path d="
M 236.00 107.00 
C 235.06 107.58 231.60 111.13 231.00 112.00
C 228.25 116.73 228.36 122.60 228.00 128.00
C 227.89 129.72 227.28 130.86 227.00 132.00
C 226.10 139.79 224.52 147.04 224.00 155.00
C 223.89 156.75 223.31 157.82 223.00 159.00
C 222.81 160.53 223.03 160.98 222.00 162.00
C 219.22 164.76 209.05 162.92 205.00 163.00
C 198.22 163.14 193.56 164.62 187.70 167.70 C 181.83 170.78 180.39 173.01 173.70 175.70 C 167.00 178.38 168.86 185.06 175.31 186.69 C 181.75 188.33 185.22 191.18 190.98 193.02 C 196.73 194.86 203.89 194.93 208.99 197.01 C 214.09 199.09 223.42 196.75 227.00 200.00
C 229.21 202.00 229.55 211.66 224.97 211.97 C 220.39 212.28 213.67 211.05 209.00 212.00 C 204.33 212.95 196.24 209.90 192.00 212.00
C 187.34 219.70 198.40 227.35 202.25 234.75 C 206.09 242.16 214.24 248.99 217.00 257.00
C 207.35 257.60 198.53 262.06 191.00 268.00
C 188.17 270.61 184.47 274.16 182.00 277.00
C 176.50 284.40 172.83 292.84 172.00 302.00
C 171.80 304.24 171.15 307.42 171.00 309.00
C 170.20 315.54 170.37 322.72 179.00 320.00
C 179.08 316.00 178.89 312.00 179.00 308.00
C 179.06 305.71 179.68 303.65 180.00 302.00
C 180.73 294.29 184.40 287.19 189.00 281.00
C 190.98 278.33 193.39 275.94 196.00 274.00
C 202.84 268.92 211.47 265.33 220.00 265.00
C 226.44 264.08 243.93 260.93 249.00 266.00
C 253.05 270.05 254.76 278.08 258.08 282.92 C 261.39 287.77 265.25 294.45 267.00 300.00
C 268.86 305.89 267.69 313.39 268.00 320.00
C 268.60 320.38 274.40 320.38 275.00 320.00
C 275.46 313.10 273.94 305.10 276.00 299.00
C 277.84 293.57 282.20 286.01 285.23 281.23 C 288.26 276.45 290.43 267.92 295.00 265.00
C 300.93 261.22 317.63 263.97 324.00 265.00
C 332.25 265.45 339.45 269.13 346.00 274.00
C 349.00 276.23 351.81 279.05 354.00 282.00
C 359.36 289.20 362.51 296.99 363.00 306.00
C 363.65 310.01 364.59 315.30 364.00 320.00
C 364.60 320.38 370.40 320.38 371.00 320.00
C 370.87 315.34 371.18 310.66 371.00 306.00
C 370.57 294.71 366.27 284.95 360.00 276.00
C 358.03 273.60 354.33 269.96 352.00 268.00
C 343.69 262.82 335.10 257.30 325.00 257.00
C 327.88 250.18 336.70 240.21 340.25 234.25 C 343.79 228.28 357.61 216.10 350.00 212.00
C 345.29 210.33 336.53 213.52 332.00 212.00 C 327.47 210.48 317.69 214.85 315.00 211.00
C 315.00 207.33 315.00 203.67 315.00 200.00
C 326.49 199.45 341.83 194.64 352.32 192.32 C 362.81 190.01 380.04 182.89 368.25 175.75 C 356.45 168.62 350.58 163.27 337.00 163.00
C 330.83 162.88 320.68 165.66 319.00 159.00
C 316.53 149.19 316.35 137.99 315.00 128.00
C 314.69 126.85 314.13 125.67 314.00 124.00
C 313.35 115.72 311.72 108.76 303.00 106.00
C 298.50 105.19 291.54 105.36 287.00 106.00
C 285.76 106.17 284.08 106.50 283.00 107.00
C 281.92 107.62 278.82 111.02 278.00 112.00
C 275.60 115.36 274.31 119.21 269.00 118.00
C 267.28 117.61 265.87 115.25 265.00 114.00
C 262.36 110.23 260.82 107.52 256.00 106.00
C 251.36 105.17 244.69 105.50 240.00 106.00
C 238.31 106.18 237.49 106.25 236.00 107.00
M 254.00 114.00 
C 257.08 115.25 257.13 116.39 259.00 119.00
C 260.04 120.24 262.78 123.12 264.00 124.00
C 268.55 126.79 274.41 126.67 279.00 124.00
C 279.90 123.38 282.31 120.83 283.00 120.00
C 284.59 117.78 285.26 115.28 288.00 114.00
C 291.56 112.34 297.50 112.57 301.00 114.00
C 303.70 115.10 303.85 115.34 305.00 118.00
C 305.58 119.35 305.79 120.19 306.00 122.00
C 306.39 125.42 306.72 128.46 307.00 132.00
C 307.19 132.95 307.83 134.54 308.00 136.00
C 308.29 138.50 308.62 140.53 309.00 143.00
C 284.00 143.00 259.00 143.00 234.00 143.00
C 234.00 141.00 234.00 139.00 234.00 137.00
C 233.99 134.93 234.69 133.42 235.00 132.00
C 235.44 127.68 235.81 122.20 237.00 118.00
C 237.47 116.36 238.04 114.56 240.00 114.00
C 240.46 113.87 241.00 114.00 241.00 114.00
C 243.94 111.82 251.02 112.79 254.00 114.00
M 311.00 162.00 
C 306.29 166.71 290.97 161.79 284.00 163.00 C 277.03 164.21 261.86 162.84 255.00 163.00 C 248.14 163.16 231.10 165.16 231.00 160.00
C 230.95 157.23 233.01 154.10 232.00 151.00
C 258.00 151.00 284.00 151.00 310.00 151.00
C 309.37 154.67 312.79 159.21 311.00 162.00
M 340.00 171.00 
C 347.31 172.62 354.54 175.85 360.00 181.00
C 351.31 184.76 342.09 186.61 333.00 189.00
C 331.74 189.44 330.74 189.83 329.00 190.00
C 319.55 190.91 310.65 192.44 301.00 193.00
C 300.03 193.17 298.54 193.92 297.00 194.00
C 295.01 194.11 292.99 194.00 291.00 194.00
C 289.55 194.16 287.09 194.94 285.00 195.00
C 275.36 195.27 264.85 194.86 256.00 194.00
C 253.33 194.00 250.67 194.00 248.00 194.00
C 246.33 194.00 244.67 194.03 243.00 194.00
C 240.72 193.96 238.61 193.28 237.00 193.00
C 218.08 192.18 199.60 186.83 182.00 181.00
C 187.65 176.38 194.77 172.75 202.00 171.00
C 222.31 165.74 249.43 170.28 271.00 170.00 C 292.57 169.72 319.58 166.47 340.00 171.00
M 243.00 202.00 
C 246.66 201.93 250.34 202.00 254.00 202.00
C 264.67 202.00 275.33 202.00 286.00 202.00
C 287.67 202.00 289.33 202.00 291.00 202.00
C 292.66 202.00 294.34 202.03 296.00 202.00
C 297.55 201.82 299.74 200.82 302.00 201.00
C 303.67 200.99 305.33 201.01 307.00 201.00
C 307.00 204.33 307.00 207.67 307.00 211.00
C 304.73 214.25 294.66 211.02 291.00 212.00
C 289.11 212.94 289.96 212.01 289.00 214.00
C 288.06 217.46 289.95 219.50 287.00 220.00
C 281.38 220.95 275.05 217.65 269.00 218.00
C 268.06 218.16 266.49 218.88 265.00 219.00
C 261.14 219.30 257.84 219.72 254.00 220.00
C 253.71 217.26 255.35 211.89 251.00 212.00
C 246.80 210.58 239.21 214.21 236.00 211.00
C 234.19 209.19 234.58 205.12 235.33 202.33 C 236.08 199.54 241.96 201.90 243.00 202.00
M 246.00 220.00 
C 248.71 222.71 247.12 232.92 247.00 237.00 C 246.88 241.08 248.81 252.19 246.00 255.00
C 242.68 258.32 226.73 257.36 224.75 252.25 C 222.77 247.15 215.56 242.53 213.75 237.25 C 211.95 231.96 203.34 226.59 203.00 221.00
C 202.82 218.09 217.94 218.17 223.00 219.00 C 228.06 219.83 242.35 216.35 246.00 220.00
M 340.00 220.00 
C 341.10 221.89 334.35 229.26 332.70 231.70 C 331.04 234.13 326.14 240.42 324.25 243.25 C 322.35 246.07 318.51 252.93 315.75 254.75 C 312.99 256.57 299.77 257.94 297.00 256.00
C 293.92 253.85 296.24 240.88 296.00 237.00 C 295.76 233.12 293.84 219.32 299.03 219.03 C 304.21 218.74 315.24 218.27 320.00 219.00 C 324.76 219.73 337.85 216.32 340.00 220.00
M 277.00 227.00 
C 280.45 227.13 285.88 226.91 288.00 230.00
C 289.79 232.61 289.32 239.69 289.00 243.00 C 288.68 246.31 290.65 254.14 288.00 256.00
C 284.20 258.66 275.69 254.61 271.00 256.00 C 266.31 257.39 258.94 254.96 254.00 256.00
C 254.00 247.00 254.00 238.00 254.00 229.00
C 257.64 228.32 261.05 226.60 265.00 227.00
C 269.01 226.35 273.07 226.44 277.00 227.00
M 284.00 266.00 
C 284.07 273.43 273.70 284.11 270.00 289.00
C 267.03 280.72 260.81 273.50 258.00 265.00
C 259.83 262.01 268.21 264.47 272.00 264.00 C 275.79 263.53 283.97 262.97 284.00 266.00 Z"/>
</g>
<g fill="None" fill-opacity="0.0" stroke="black" stroke-width="1"><path d="
M 231.00 112.00 
C 231.60 111.13 235.06 107.58 236.00 107.00
C 234.06 107.98 232.11 110.10 231.00 112.00 Z"/>
</g>
<g fill="None" fill-opacity="0.0" stroke="black" stroke-width="1"><path d="
M 278.00 112.00 
C 278.82 111.02 281.92 107.62 283.00 107.00
C 280.93 107.96 279.31 110.17 278.00 112.00 Z"/>
</g>
<g fill="None" fill-opacity="0.0" stroke="black" stroke-width="1"><path d="
M 241.00 114.00 
C 244.92 114.00 250.21 113.05 254.00 114.00
C 251.02 112.79 243.94 111.82 241.00 114.00 Z"/>
</g>
<g fill="None" fill-opacity="0.0" stroke="black" stroke-width="1"><path d="
M 288.00 114.00 
C 290.81 113.16 298.15 113.28 301.00 114.00
C 297.50 112.57 291.56 112.34 288.00 114.00 Z"/>
</g>
<g fill="None" fill-opacity="0.0" stroke="black" stroke-width="1"><path d="
M 237.00 118.00 
C 237.33 117.10 239.25 114.86 240.00 114.00
C 238.04 114.56 237.47 116.36 237.00 118.00 Z"/>
</g>
<g fill="None" fill-opacity="0.0" stroke="black" stroke-width="1"><path d="
M 237.00 118.00 
C 235.81 122.20 235.44 127.68 235.00 132.00
C 234.84 133.58 234.09 136.05 234.00 137.00
C 234.00 139.00 234.00 141.00 234.00 143.00
C 259.00 143.00 284.00 143.00 309.00 143.00
C 308.62 140.53 308.29 138.50 308.00 136.00
C 307.73 134.90 307.13 133.63 307.00 132.00
C 306.72 128.46 306.39 125.42 306.00 122.00
C 305.79 121.15 305.31 119.20 305.00 118.00
C 303.85 115.34 303.70 115.10 301.00 114.00
C 298.15 113.28 290.81 113.16 288.00 114.00
C 285.26 115.28 284.59 117.78 283.00 120.00
C 281.84 121.63 280.72 123.00 279.00 124.00
C 274.41 126.67 268.55 126.79 264.00 124.00
C 261.93 122.73 260.36 120.90 259.00 119.00
C 257.13 116.39 257.08 115.25 254.00 114.00
C 250.21 113.05 244.92 114.00 241.00 114.00
C 241.00 114.00 240.46 113.87 240.00 114.00
C 239.25 114.86 237.33 117.10 237.00 118.00 Z"/>
</g>
<g fill="None" fill-opacity="0.0" stroke="black" stroke-width="1"><path d="
M 269.00 118.00 
C 268.83 117.95 265.33 114.40 265.00 114.00
C 265.87 115.25 267.28 117.61 269.00 118.00 Z"/>
</g>
<g fill="None" fill-opacity="0.0" stroke="black" stroke-width="1"><path d="
M 306.00 122.00 
C 305.79 120.19 305.58 119.35 305.00 118.00
C 305.31 119.20 305.79 121.15 306.00 122.00 Z"/>
</g>
<g fill="None" fill-opacity="0.0" stroke="black" stroke-width="1"><path d="
M 264.00 124.00 
C 262.78 123.12 260.04 120.24 259.00 119.00
C 260.36 120.90 261.93 122.73 264.00 124.00 Z"/>
</g>
<g fill="None" fill-opacity="0.0" stroke="black" stroke-width="1"><path d="
M 279.00 124.00 
C 280.72 123.00 281.84 121.63 283.00 120.00
C 282.31 120.83 279.90 123.38 279.00 124.00 Z"/>
</g>
<g fill="None" fill-opacity="0.0" stroke="black" stroke-width="1"><path d="
M 315.00 128.00 
C 314.81 126.58 314.19 124.92 314.00 124.00
C 314.13 125.67 314.69 126.85 315.00 128.00 Z"/>
</g>
<g fill="None" fill-opacity="0.0" stroke="black" stroke-width="1"><path d="
M 227.00 132.00 
C 227.28 130.86 227.89 129.72 228.00 128.00
C 227.83 128.92 227.17 130.53 227.00 132.00 Z"/>
</g>
<g fill="None" fill-opacity="0.0" stroke="black" stroke-width="1"><path d="
M 234.00 137.00 
C 234.09 136.05 234.84 133.58 235.00 132.00
C 234.69 133.42 233.99 134.93 234.00 137.00 Z"/>
</g>
<g fill="None" fill-opacity="0.0" stroke="black" stroke-width="1"><path d="
M 308.00 136.00 
C 307.83 134.54 307.19 132.95 307.00 132.00
C 307.13 133.63 307.73 134.90 308.00 136.00 Z"/>
</g>
<g fill="None" fill-opacity="0.0" stroke="black" stroke-width="1"><path d="
M 231.00 160.00 
C 232.80 164.36 243.60 161.62 249.00 162.00 C 254.40 162.38 264.17 162.31 270.00 162.00 C 275.83 161.69 284.41 163.32 290.00 162.00 C 295.59 160.68 306.39 165.03 311.00 162.00
C 312.79 159.21 309.37 154.67 310.00 151.00
C 284.00 151.00 258.00 151.00 232.00 151.00
C 233.01 154.10 230.95 157.23 231.00 160.00 Z"/>
</g>
<g fill="None" fill-opacity="0.0" stroke="black" stroke-width="1"><path d="
M 223.00 159.00 
C 223.31 157.82 223.89 156.75 224.00 155.00
C 223.83 155.90 223.18 157.55 223.00 159.00 Z"/>
</g>
<g fill="None" fill-opacity="0.0" stroke="black" stroke-width="1"><path d="
M 337.00 163.00 
C 332.33 160.68 325.50 162.65 320.00 162.00
C 320.68 160.70 319.27 159.70 319.00 159.00
C 320.68 165.66 330.83 162.88 337.00 163.00 Z"/>
</g>
<g fill="None" fill-opacity="0.0" stroke="black" stroke-width="1"><path d="
M 311.00 162.00 
C 306.39 165.03 295.59 160.68 290.00 162.00 C 284.41 163.32 275.83 161.69 270.00 162.00 C 264.17 162.31 254.40 162.38 249.00 162.00 C 243.60 161.62 232.80 164.36 231.00 160.00
C 231.10 165.16 248.14 163.16 255.00 163.00 C 261.86 162.84 277.03 164.21 284.00 163.00 C 290.97 161.79 306.29 166.71 311.00 162.00 Z"/>
</g>
<g fill="None" fill-opacity="0.0" stroke="black" stroke-width="1"><path d="
M 205.00 163.00 
C 209.05 162.92 219.22 164.76 222.00 162.00
C 219.31 163.63 207.98 162.64 205.00 163.00 Z"/>
</g>
<g fill="None" fill-opacity="0.0" stroke="black" stroke-width="1"><path d="
M 202.00 171.00 
C 224.23 168.04 248.54 171.25 271.00 171.00 C 293.46 170.75 317.66 168.71 340.00 171.00
C 319.58 166.47 292.57 169.72 271.00 170.00 C 249.43 170.28 222.31 165.74 202.00 171.00 Z"/>
</g>
<g fill="None" fill-opacity="0.0" stroke="black" stroke-width="1"><path d="
M 237.00 193.00 
C 239.00 193.09 241.00 192.93 243.00 193.00
C 244.86 193.06 246.81 193.83 248.00 194.00
C 250.67 194.00 253.33 194.00 256.00 194.00
C 265.67 194.00 275.33 194.00 285.00 194.00
C 287.00 194.00 289.00 194.00 291.00 194.00
C 292.99 194.00 295.01 194.11 297.00 194.00
C 297.94 193.85 299.49 193.09 301.00 193.00
C 310.65 192.44 319.55 190.91 329.00 190.00
C 329.89 189.80 331.68 189.26 333.00 189.00
C 342.09 186.61 351.31 184.76 360.00 181.00
C 354.54 175.85 347.31 172.62 340.00 171.00
C 317.66 168.71 293.46 170.75 271.00 171.00 C 248.54 171.25 224.23 168.04 202.00 171.00
C 194.77 172.75 187.65 176.38 182.00 181.00
C 199.60 186.83 218.08 192.18 237.00 193.00 Z"/>
</g>
<g fill="None" fill-opacity="0.0" stroke="black" stroke-width="1"><path d="
M 329.00 190.00 
C 330.74 189.83 331.74 189.44 333.00 189.00
C 331.68 189.26 329.89 189.80 329.00 190.00 Z"/>
</g>
<g fill="None" fill-opacity="0.0" stroke="black" stroke-width="1"><path d="
M 243.00 194.00 
C 242.85 193.95 243.00 193.00 243.00 193.00
C 241.00 192.93 239.00 193.09 237.00 193.00
C 238.61 193.28 240.72 193.96 243.00 194.00 Z"/>
</g>
<g fill="None" fill-opacity="0.0" stroke="black" stroke-width="1"><path d="
M 243.00 194.00 
C 244.67 194.03 246.33 194.00 248.00 194.00
C 246.81 193.83 244.86 193.06 243.00 193.00
C 243.00 193.00 242.85 193.95 243.00 194.00 Z"/>
</g>
<g fill="None" fill-opacity="0.0" stroke="black" stroke-width="1"><path d="
M 297.00 194.00 
C 298.54 193.92 300.03 193.17 301.00 193.00
C 299.49 193.09 297.94 193.85 297.00 194.00 Z"/>
</g>
<g fill="None" fill-opacity="0.0" stroke="black" stroke-width="1"><path d="
M 285.00 195.00 
C 285.04 195.00 285.00 194.00 285.00 194.00
C 275.33 194.00 265.67 194.00 256.00 194.00
C 264.85 194.86 275.36 195.27 285.00 195.00 Z"/>
</g>
<g fill="None" fill-opacity="0.0" stroke="black" stroke-width="1"><path d="
M 285.00 195.00 
C 287.09 194.94 289.55 194.16 291.00 194.00
C 289.00 194.00 287.00 194.00 285.00 194.00
C 285.00 194.00 285.04 195.00 285.00 195.00 Z"/>
</g>
<g fill="None" fill-opacity="0.0" stroke="black" stroke-width="1"><path d="
M 192.00 212.00 
C 196.24 209.90 204.33 212.95 209.00 212.00 C 213.67 211.05 220.39 212.28 224.97 211.97 C 229.55 211.66 229.21 202.00 227.00 200.00
C 227.00 203.67 227.00 207.33 227.00 211.00
C 217.43 214.34 200.18 206.10 192.00 212.00 Z"/>
</g>
<g fill="None" fill-opacity="0.0" stroke="black" stroke-width="1"><path d="
M 236.00 211.00 
C 236.00 208.00 236.00 205.00 236.00 202.00
C 238.33 202.00 240.67 202.00 243.00 202.00
C 241.96 201.90 236.08 199.54 235.33 202.33 C 234.58 205.12 234.19 209.19 236.00 211.00 Z"/>
</g>
<g fill="None" fill-opacity="0.0" stroke="black" stroke-width="1"><path d="
M 296.00 202.00 
C 297.86 201.97 300.93 201.01 302.00 201.00
C 299.74 200.82 297.55 201.82 296.00 202.00 Z"/>
</g>
<g fill="None" fill-opacity="0.0" stroke="black" stroke-width="1"><path d="
M 296.00 202.00 
C 294.34 202.03 292.66 202.00 291.00 202.00
C 289.83 202.15 287.78 202.93 286.00 203.00
C 275.41 203.42 263.80 202.95 254.00 202.00
C 250.34 202.00 246.66 201.93 243.00 202.00
C 240.67 202.00 238.33 202.00 236.00 202.00
C 236.00 205.00 236.00 208.00 236.00 211.00
C 240.90 211.51 246.90 209.88 251.00 212.00
C 255.35 211.89 253.71 217.26 254.00 220.00
C 257.84 219.72 261.14 219.30 265.00 219.00
C 266.02 218.79 267.42 218.09 269.00 218.00
C 275.05 217.65 281.38 220.95 287.00 220.00
C 288.33 219.20 288.36 215.31 289.00 214.00
C 289.96 212.01 289.11 212.94 291.00 212.00
C 295.44 209.79 301.81 211.58 307.00 211.00
C 307.00 207.67 307.00 204.33 307.00 201.00
C 305.33 201.01 303.67 200.99 302.00 201.00
C 300.93 201.01 297.86 201.97 296.00 202.00 Z"/>
</g>
<g fill="None" fill-opacity="0.0" stroke="black" stroke-width="1"><path d="
M 286.00 203.00 
C 286.04 203.00 286.00 202.00 286.00 202.00
C 275.33 202.00 264.67 202.00 254.00 202.00
C 263.80 202.95 275.41 203.42 286.00 203.00 Z"/>
</g>
<g fill="None" fill-opacity="0.0" stroke="black" stroke-width="1"><path d="
M 286.00 203.00 
C 287.78 202.93 289.83 202.15 291.00 202.00
C 289.33 202.00 287.67 202.00 286.00 202.00
C 286.00 202.00 286.04 203.00 286.00 203.00 Z"/>
</g>
<g fill="None" fill-opacity="0.0" stroke="black" stroke-width="1"><path d="
M 251.00 212.00 
C 246.90 209.88 240.90 211.51 236.00 211.00
C 239.21 214.21 246.80 210.58 251.00 212.00 Z"/>
</g>
<g fill="None" fill-opacity="0.0" stroke="black" stroke-width="1"><path d="
M 291.00 212.00 
C 294.66 211.02 304.73 214.25 307.00 211.00
C 301.81 211.58 295.44 209.79 291.00 212.00 Z"/>
</g>
<g fill="None" fill-opacity="0.0" stroke="black" stroke-width="1"><path d="
M 350.00 212.00 
C 340.76 207.01 325.43 213.66 315.00 211.00
C 317.69 214.85 327.47 210.48 332.00 212.00 C 336.53 213.52 345.29 210.33 350.00 212.00 Z"/>
</g>
<g fill="None" fill-opacity="0.0" stroke="black" stroke-width="1"><path d="
M 287.00 220.00 
C 289.95 219.50 288.06 217.46 289.00 214.00
C 288.36 215.31 288.33 219.20 287.00 220.00 Z"/>
</g>
<g fill="None" fill-opacity="0.0" stroke="black" stroke-width="1"><path d="
M 265.00 219.00 
C 266.49 218.88 268.06 218.16 269.00 218.00
C 267.42 218.09 266.02 218.79 265.00 219.00 Z"/>
</g>
<g fill="None" fill-opacity="0.0" stroke="black" stroke-width="1"><path d="
M 203.00 221.00 
C 216.43 218.68 231.82 220.66 246.00 220.00
C 242.35 216.35 228.06 219.83 223.00 219.00 C 217.94 218.17 202.82 218.09 203.00 221.00 Z"/>
</g>
<g fill="None" fill-opacity="0.0" stroke="black" stroke-width="1"><path d="
M 297.00 256.00 
C 297.00 244.00 297.00 232.00 297.00 220.00
C 311.33 220.00 325.67 220.00 340.00 220.00
C 337.85 216.32 324.76 219.73 320.00 219.00 C 315.24 218.27 304.21 218.74 299.03 219.03 C 293.84 219.32 295.76 233.12 296.00 237.00 C 296.24 240.88 293.92 253.85 297.00 256.00 Z"/>
</g>
<g fill="None" fill-opacity="0.0" stroke="black" stroke-width="1"><path d="
M 203.00 221.00 
C 203.34 226.59 211.95 231.96 213.75 237.25 C 215.56 242.53 222.77 247.15 224.75 252.25 C 226.73 257.36 242.68 258.32 246.00 255.00
C 248.73 251.11 244.65 242.90 246.00 238.00 C 247.35 233.10 244.99 225.18 246.00 220.00
C 231.82 220.66 216.43 218.68 203.00 221.00 Z"/>
</g>
<g fill="None" fill-opacity="0.0" stroke="black" stroke-width="1"><path d="
M 246.00 255.00 
C 248.81 252.19 246.88 241.08 247.00 237.00 C 247.12 232.92 248.71 222.71 246.00 220.00
C 244.99 225.18 247.35 233.10 246.00 238.00 C 244.65 242.90 248.73 251.11 246.00 255.00 Z"/>
</g>
<g fill="None" fill-opacity="0.0" stroke="black" stroke-width="1"><path d="
M 297.00 256.00 
C 299.77 257.94 312.99 256.57 315.75 254.75 C 318.51 252.93 322.35 246.07 324.25 243.25 C 326.14 240.42 331.04 234.13 332.70 231.70 C 334.35 229.26 341.10 221.89 340.00 220.00
C 325.67 220.00 311.33 220.00 297.00 220.00
C 297.00 232.00 297.00 244.00 297.00 256.00 Z"/>
</g>
<g fill="None" fill-opacity="0.0" stroke="black" stroke-width="1"><path d="
M 265.00 227.00 
C 268.94 226.79 273.06 226.85 277.00 227.00
C 273.07 226.44 269.01 226.35 265.00 227.00 Z"/>
</g>
<g fill="None" fill-opacity="0.0" stroke="black" stroke-width="1"><path d="
M 288.00 256.00 
C 285.51 248.50 291.33 237.11 288.00 230.00
C 285.88 226.91 280.45 227.13 277.00 227.00
C 273.06 226.85 268.94 226.79 265.00 227.00
C 261.05 226.60 257.64 228.32 254.00 229.00
C 254.00 238.00 254.00 247.00 254.00 256.00
C 258.94 254.96 266.31 257.39 271.00 256.00 C 275.69 254.61 284.20 258.66 288.00 256.00 Z"/>
</g>
<g fill="None" fill-opacity="0.0" stroke="black" stroke-width="1"><path d="
M 288.00 256.00 
C 290.65 254.14 288.68 246.31 289.00 243.00 C 289.32 239.69 289.79 232.61 288.00 230.00
C 291.33 237.11 285.51 248.50 288.00 256.00 Z"/>
</g>
<g fill="None" fill-opacity="0.0" stroke="black" stroke-width="1"><path d="
M 220.00 265.00 
C 226.68 264.75 243.60 262.14 249.00 266.00
C 243.93 260.93 226.44 264.08 220.00 265.00 Z"/>
</g>
<g fill="None" fill-opacity="0.0" stroke="black" stroke-width="1"><path d="
M 258.00 265.00 
C 261.61 265.65 267.63 264.13 271.00 265.00 C 274.37 265.87 282.20 262.97 284.00 266.00
C 283.97 262.97 275.79 263.53 272.00 264.00 C 268.21 264.47 259.83 262.01 258.00 265.00 Z"/>
</g>
<g fill="None" fill-opacity="0.0" stroke="black" stroke-width="1"><path d="
M 295.00 265.00 
C 298.95 263.29 305.68 265.62 310.00 265.00 C 314.32 264.38 319.63 264.76 324.00 265.00
C 317.63 263.97 300.93 261.22 295.00 265.00 Z"/>
</g>
<g fill="None" fill-opacity="0.0" stroke="black" stroke-width="1"><path d="
M 284.00 266.00 
C 282.20 262.97 274.37 265.87 271.00 265.00 C 267.63 264.13 261.61 265.65 258.00 265.00
C 260.81 273.50 267.03 280.72 270.00 289.00
C 273.70 284.11 284.07 273.43 284.00 266.00 Z"/>
</g>
<g fill="None" fill-opacity="0.0" stroke="black" stroke-width="1"><path d="
M 182.00 277.00 
C 184.47 274.16 188.17 270.61 191.00 268.00
C 187.76 270.55 184.51 273.63 182.00 277.00 Z"/>
</g>
<g fill="None" fill-opacity="0.0" stroke="black" stroke-width="1"><path d="
M 360.00 276.00 
C 357.93 273.05 354.98 270.13 352.00 268.00
C 354.33 269.96 358.03 273.60 360.00 276.00 Z"/>
</g>
<g fill="None" fill-opacity="0.0" stroke="black" stroke-width="1"><path d="
M 189.00 281.00 
C 190.81 278.92 193.87 275.86 196.00 274.00
C 193.39 275.94 190.98 278.33 189.00 281.00 Z"/>
</g>
<g fill="None" fill-opacity="0.0" stroke="black" stroke-width="1"><path d="
M 354.00 282.00 
C 351.81 279.05 349.00 276.23 346.00 274.00
C 348.42 276.11 351.84 279.52 354.00 282.00 Z"/>
</g>
<g fill="None" fill-opacity="0.0" stroke="black" stroke-width="1"><path d="
M 275.00 320.00 
C 278.56 317.73 275.18 303.18 276.00 299.00
C 273.94 305.10 275.46 313.10 275.00 320.00 Z"/>
</g>
<g fill="None" fill-opacity="0.0" stroke="black" stroke-width="1"><path d="
M 268.00 320.00 
C 267.69 313.39 268.86 305.89 267.00 300.00
C 267.71 303.96 264.59 317.82 268.00 320.00 Z"/>
</g>
<g fill="None" fill-opacity="0.0" stroke="black" stroke-width="1"><path d="
M 171.00 309.00 
C 171.15 307.42 171.80 304.24 172.00 302.00
C 171.65 303.93 171.05 306.41 171.00 309.00 Z"/>
</g>
<g fill="None" fill-opacity="0.0" stroke="black" stroke-width="1"><path d="
M 179.00 308.00 
C 179.15 306.68 179.81 303.96 180.00 302.00
C 179.68 303.65 179.06 305.71 179.00 308.00 Z"/>
</g>
<g fill="None" fill-opacity="0.0" stroke="black" stroke-width="1"><path d="
M 364.00 320.00 
C 364.59 315.30 363.65 310.01 363.00 306.00
C 363.16 308.93 361.47 318.39 364.00 320.00 Z"/>
</g>
<g fill="None" fill-opacity="0.0" stroke="black" stroke-width="1"><path d="
M 371.00 320.00 
C 374.09 318.03 371.35 308.48 371.00 306.00
C 371.18 310.66 370.87 315.34 371.00 320.00 Z"/>
</g>
<g fill="None" fill-opacity="0.0" stroke="black" stroke-width="1"><path d="
M 290.00 309.00 
C 292.76 307.99 303.24 307.99 306.00 309.00
C 302.63 307.14 293.43 307.11 290.00 309.00 Z"/>
</g>
<g fill="None" fill-opacity="0.0" stroke="black" stroke-width="1"><path d="
M 320.00 309.00 
C 321.18 308.64 324.83 308.62 326.00 309.00
C 323.81 307.76 322.22 307.81 320.00 309.00 Z"/>
</g>
<g fill="None" fill-opacity="0.0" stroke="black" stroke-width="1"><path d="
M 290.00 316.00 
C 292.85 317.04 303.12 316.97 306.00 316.00
C 309.45 314.22 310.18 311.30 306.00 309.00
C 303.24 307.99 292.76 307.99 290.00 309.00
C 286.43 310.97 286.36 313.99 290.00 316.00 Z"/>
</g>
<g fill="None" fill-opacity="0.0" stroke="black" stroke-width="1"><path d="
M 320.00 316.00 
C 321.22 316.37 324.77 316.36 326.00 316.00
C 328.94 314.46 329.92 310.28 326.00 309.00
C 324.83 308.62 321.18 308.64 320.00 309.00
C 316.96 310.63 315.76 314.71 320.00 316.00 Z"/>
</g>
<g fill="None" fill-opacity="0.0" stroke="black" stroke-width="1"><path d="
M 306.00 316.00 
C 303.12 316.97 292.85 317.04 290.00 316.00
C 293.44 317.90 302.48 317.82 306.00 316.00 Z"/>
</g>
<g fill="None" fill-opacity="0.0" stroke="black" stroke-width="1"><path d="
M 326.00 316.00 
C 324.77 316.36 321.22 316.37 320.00 316.00
C 322.23 317.20 323.73 317.18 326.00 316.00 Z"/>
</g>
<g fill="None" fill-opacity="0.0" stroke="black" stroke-width="1"><path d="
M 98.00 355.00 
C 98.00 354.96 99.00 355.00 99.00 355.00
C 102.67 355.00 106.33 355.00 110.00 355.00
C 110.50 355.00 111.00 355.00 111.00 355.00
C 109.25 353.17 99.80 353.12 98.00 355.00 Z"/>
</g>
<g fill="None" fill-opacity="0.0" stroke="black" stroke-width="1"><path d="
M 116.00 355.00 
C 117.00 355.00 118.00 355.00 119.00 355.00
C 119.00 359.00 119.00 363.00 119.00 367.00
C 118.00 367.00 117.00 367.00 116.00 367.00
C 116.50 368.76 118.72 367.72 120.00 368.00
C 121.84 365.76 119.15 349.94 116.00 355.00 Z"/>
</g>
<g fill="None" fill-opacity="0.0" stroke="black" stroke-width="1"><path d="
M 127.00 358.00 
C 126.44 356.88 125.37 356.19 125.00 355.00
C 127.77 354.08 128.90 357.19 131.00 358.00
C 129.80 355.62 126.64 352.46 124.00 355.00
C 124.07 356.62 126.25 356.99 127.00 358.00 Z"/>
</g>
<g fill="None" fill-opacity="0.0" stroke="black" stroke-width="1"><path d="
M 167.00 355.00 
C 168.19 354.70 170.10 355.21 171.00 356.00
C 169.42 354.07 169.11 353.80 167.00 355.00 Z"/>
</g>
<g fill="None" fill-opacity="0.0" stroke="black" stroke-width="1"><path d="
M 178.00 355.00 
C 180.99 353.67 187.68 355.00 191.00 355.00
C 191.50 355.00 192.00 355.00 192.00 355.00
C 190.45 353.39 179.39 352.86 178.00 355.00 Z"/>
</g>
<g fill="None" fill-opacity="0.0" stroke="black" stroke-width="1"><path d="
M 208.00 355.00 
C 210.33 355.00 212.67 355.00 215.00 355.00
C 213.06 353.56 209.98 353.54 208.00 355.00 Z"/>
</g>
<g fill="None" fill-opacity="0.0" stroke="black" stroke-width="1"><path d="
M 222.00 355.00 
C 223.00 355.00 224.00 355.00 225.00 355.00
C 225.00 359.33 225.00 363.67 225.00 368.00
C 228.67 366.22 225.02 350.16 222.00 355.00 Z"/>
</g>
<g fill="None" fill-opacity="0.0" stroke="black" stroke-width="1"><path d="
M 231.00 367.00 
C 231.00 363.00 231.00 359.00 231.00 355.00
C 234.33 355.00 237.67 355.00 241.00 355.00
C 232.96 350.84 224.15 360.15 231.00 367.00 Z"/>
</g>
<g fill="None" fill-opacity="0.0" stroke="black" stroke-width="1"><path d="
M 250.00 355.00 
C 250.00 354.96 251.00 355.00 251.00 355.00
C 254.67 355.00 258.33 355.00 262.00 355.00
C 260.25 353.25 251.78 353.14 250.00 355.00 Z"/>
</g>
<g fill="None" fill-opacity="0.0" stroke="black" stroke-width="1"><path d="
M 269.00 355.00 
C 269.95 354.34 276.84 354.61 278.00 355.00
C 275.91 353.92 271.05 352.95 269.00 355.00 Z"/>
</g>
<g fill="None" fill-opacity="0.0" stroke="black" stroke-width="1"><path d="
M 290.00 355.00 
C 291.91 355.00 295.23 354.34 297.00 355.00
C 294.97 353.69 292.07 353.47 290.00 355.00 Z"/>
</g>
<g fill="None" fill-opacity="0.0" stroke="black" stroke-width="1"><path d="
M 305.00 355.00 
C 305.00 354.96 306.00 355.00 306.00 355.00
C 309.67 355.00 313.33 355.00 317.00 355.00
C 315.25 353.25 306.79 353.14 305.00 355.00 Z"/>
</g>
<g fill="None" fill-opacity="0.0" stroke="black" stroke-width="1"><path d="
M 327.00 355.00 
C 328.61 354.63 333.48 354.39 335.00 355.00
C 332.75 353.04 329.31 354.12 327.00 355.00 Z"/>
</g>
<g fill="None" fill-opacity="0.0" stroke="black" stroke-width="1"><path d="
M 353.00 355.00 
C 354.00 355.00 355.00 355.00 356.00 355.00
C 356.00 358.00 356.00 361.00 356.00 364.00
C 357.08 361.88 356.17 349.91 353.00 355.00 Z"/>
</g>
<g fill="None" fill-opacity="0.0" stroke="black" stroke-width="1"><path d="
M 363.00 355.00 
C 365.90 355.47 369.14 354.38 372.00 355.00
C 369.80 354.17 365.18 352.82 363.00 355.00 Z"/>
</g>
<g fill="None" fill-opacity="0.0" stroke="black" stroke-width="1"><path d="
M 381.00 355.00 
C 381.00 354.96 382.00 355.00 382.00 355.00
C 382.50 355.00 383.50 355.00 384.00 355.00
C 384.50 355.00 385.00 355.00 385.00 355.00
C 384.30 353.55 381.69 353.58 381.00 355.00 Z"/>
</g>
<g fill="None" fill-opacity="0.0" stroke="black" stroke-width="1"><path d="
M 391.00 355.00 
C 393.87 355.53 397.18 354.29 400.00 355.00
C 397.82 354.11 393.15 352.85 391.00 355.00 Z"/>
</g>
<g fill="None" fill-opacity="0.0" stroke="black" stroke-width="1"><path d="
M 413.00 357.00 
C 415.21 354.62 416.78 354.49 419.00 357.00
C 416.58 353.20 415.43 353.38 413.00 357.00 Z"/>
</g>
<g fill="None" fill-opacity="0.0" stroke="black" stroke-width="1"><path d="
M 429.00 355.00 
C 431.88 355.50 435.15 354.34 438.00 355.00
C 435.80 354.16 431.18 352.82 429.00 355.00 Z"/>
</g>
<g fill="None" fill-opacity="0.0" stroke="black" stroke-width="1"><path d="
M 109.00 360.00 
C 108.76 359.75 108.00 360.00 108.00 360.00
C 107.23 362.86 99.13 362.71 99.00 367.00
C 99.00 363.00 99.00 359.00 99.00 355.00
C 99.00 355.00 98.00 354.96 98.00 355.00
C 98.00 359.33 98.00 363.67 98.00 368.00
C 101.77 369.07 102.65 366.10 102.00 363.00
C 104.40 362.92 109.40 363.89 109.00 360.00 Z"/>
</g>
<g fill="None" fill-opacity="0.0" stroke="black" stroke-width="1"><path d="
M 108.00 360.00 
C 105.86 360.23 103.44 360.36 102.00 359.00
C 100.09 357.20 109.37 357.37 110.00 355.00
C 106.33 355.00 102.67 355.00 99.00 355.00
C 99.00 359.00 99.00 363.00 99.00 367.00
C 99.13 362.71 107.23 362.86 108.00 360.00 Z"/>
</g>
<g fill="None" fill-opacity="0.0" stroke="black" stroke-width="1"><path d="
M 102.00 359.00 
C 103.66 356.25 111.55 360.31 111.00 355.00
C 111.00 355.00 110.50 355.00 110.00 355.00
C 109.37 357.37 100.09 357.20 102.00 359.00 Z"/>
</g>
<g fill="None" fill-opacity="0.0" stroke="black" stroke-width="1"><path d="
M 116.00 367.00 
C 117.00 367.00 118.00 367.00 119.00 367.00
C 119.00 363.00 119.00 359.00 119.00 355.00
C 118.00 355.00 117.00 355.00 116.00 355.00
C 115.34 356.07 115.33 365.94 116.00 367.00 Z"/>
</g>
<g fill="None" fill-opacity="0.0" stroke="black" stroke-width="1"><path d="
M 127.00 358.00 
C 127.83 359.13 129.07 360.50 129.00 362.00
C 128.93 363.57 126.03 365.28 125.00 366.00
C 125.00 366.00 124.92 366.99 125.00 367.00
C 127.61 367.43 127.91 365.47 130.00 365.00
C 131.82 364.59 133.17 365.05 135.00 367.00
C 137.81 366.36 135.77 365.97 135.00 364.00
C 134.44 362.56 133.77 361.69 134.00 360.00
C 134.12 359.15 137.96 355.87 138.00 356.00
C 137.47 354.78 136.21 354.82 135.00 355.00
C 132.76 355.59 133.48 358.56 131.00 358.00
C 128.90 357.19 127.77 354.08 125.00 355.00
C 125.37 356.19 126.44 356.88 127.00 358.00 Z"/>
</g>
<g fill="None" fill-opacity="0.0" stroke="black" stroke-width="1"><path d="
M 131.00 358.00 
C 133.48 358.56 132.76 355.59 135.00 355.00
C 133.31 355.25 132.68 357.61 131.00 358.00 Z"/>
</g>
<g fill="None" fill-opacity="0.0" stroke="black" stroke-width="1"><path d="
M 155.00 365.00 
C 154.07 369.06 147.30 366.08 144.00 367.00
C 144.00 363.00 144.00 359.00 144.00 355.00
C 141.71 358.34 143.64 363.83 143.00 368.00
C 147.33 368.00 151.67 368.00 156.00 368.00
C 155.97 366.72 156.15 365.67 155.00 365.00 Z"/>
</g>
<g fill="None" fill-opacity="0.0" stroke="black" stroke-width="1"><path d="
M 155.00 365.00 
C 153.07 363.89 148.81 366.27 147.00 365.00
C 144.27 363.09 147.20 357.70 146.00 355.00
C 145.65 354.77 144.35 354.77 144.00 355.00
C 144.00 359.00 144.00 363.00 144.00 367.00
C 147.30 366.08 154.07 369.06 155.00 365.00 Z"/>
</g>
<g fill="None" fill-opacity="0.0" stroke="black" stroke-width="1"><path d="
M 147.00 365.00 
C 146.11 362.37 148.60 356.69 146.00 355.00
C 147.20 357.70 144.27 363.09 147.00 365.00 Z"/>
</g>
<g fill="None" fill-opacity="0.0" stroke="black" stroke-width="1"><path d="
M 172.00 366.00 
C 173.32 366.34 174.03 367.76 175.00 366.00
C 174.96 364.30 172.15 357.00 171.00 356.00
C 170.10 355.21 168.19 354.70 167.00 355.00
C 164.18 358.60 162.08 363.44 161.00 368.00
C 164.93 365.73 167.32 364.79 172.00 366.00
M 170.00 361.00 
C 169.11 363.52 167.35 361.26 167.00 360.00
C 166.23 357.23 171.74 358.81 170.00 361.00 Z"/>
</g>
<g fill="None" fill-opacity="0.0" stroke="black" stroke-width="1"><path d="
M 178.00 357.00 
C 179.53 358.04 181.41 356.49 183.00 358.00
C 185.69 360.56 181.78 365.87 186.00 367.00
C 186.00 364.00 186.00 361.00 186.00 358.00
C 187.43 356.21 191.38 358.26 191.00 355.00
C 187.68 355.00 180.99 353.67 178.00 355.00
C 177.77 355.35 177.83 356.56 178.00 357.00 Z"/>
</g>
<g fill="None" fill-opacity="0.0" stroke="black" stroke-width="1"><path d="
M 186.00 367.00 
C 186.00 367.50 186.00 368.00 186.00 368.00
C 188.25 365.65 186.39 361.17 187.00 358.00
C 189.21 358.29 192.30 357.91 192.00 355.00
C 192.00 355.00 191.50 355.00 191.00 355.00
C 191.38 358.26 187.43 356.21 186.00 358.00
C 186.00 361.00 186.00 364.00 186.00 367.00 Z"/>
</g>
<g fill="None" fill-opacity="0.0" stroke="black" stroke-width="1"><path d="
M 204.00 359.00 
C 204.22 358.21 206.33 355.77 207.00 355.00
C 205.13 355.53 204.33 357.35 204.00 359.00 Z"/>
</g>
<g fill="None" fill-opacity="0.0" stroke="black" stroke-width="1"><path d="
M 204.00 359.00 
C 203.14 363.31 204.42 365.55 208.00 367.00
C 210.51 367.63 213.45 366.53 216.00 367.00
C 216.51 365.60 215.19 364.85 214.00 365.00
C 211.17 364.41 209.81 365.65 208.00 363.00
C 206.55 360.88 206.84 359.54 209.00 358.00
C 211.04 356.55 215.81 358.27 216.00 355.00
C 216.00 355.00 215.50 355.00 215.00 355.00
C 212.67 355.00 210.33 355.00 208.00 355.00
C 208.00 355.00 207.46 354.87 207.00 355.00
C 206.33 355.77 204.22 358.21 204.00 359.00 Z"/>
</g>
<g fill="None" fill-opacity="0.0" stroke="black" stroke-width="1"><path d="
M 209.00 358.00 
C 211.67 358.00 214.33 358.00 217.00 358.00
C 217.22 356.60 216.84 355.82 216.00 355.00
C 215.81 358.27 211.04 356.55 209.00 358.00 Z"/>
</g>
<g fill="None" fill-opacity="0.0" stroke="black" stroke-width="1"><path d="
M 225.00 368.00 
C 225.00 363.67 225.00 359.33 225.00 355.00
C 224.00 355.00 223.00 355.00 222.00 355.00
C 222.00 359.33 222.00 363.67 222.00 368.00
C 222.85 367.69 224.19 368.39 225.00 368.00 Z"/>
</g>
<g fill="None" fill-opacity="0.0" stroke="black" stroke-width="1"><path d="
M 231.00 367.00 
C 234.15 365.93 239.02 368.43 242.00 367.00
C 245.64 364.41 244.24 356.67 241.00 355.00
C 237.67 355.00 234.33 355.00 231.00 355.00
C 231.00 359.00 231.00 363.00 231.00 367.00
M 240.00 358.00 
C 243.45 361.24 232.35 360.48 235.00 358.00
C 236.49 356.60 238.53 356.62 240.00 358.00
M 240.00 363.00 
C 243.31 366.31 233.35 365.54 234.00 363.00
C 234.55 360.88 239.10 362.10 240.00 363.00 Z"/>
</g>
<g fill="None" fill-opacity="0.0" stroke="black" stroke-width="1"><path d="
M 262.00 365.00 
C 261.07 369.06 254.30 366.08 251.00 367.00
C 251.00 363.00 251.00 359.00 251.00 355.00
C 251.00 355.00 250.00 354.96 250.00 355.00
C 250.00 359.33 250.00 363.67 250.00 368.00
C 252.03 369.61 265.72 367.10 262.00 365.00 Z"/>
</g>
<g fill="None" fill-opacity="0.0" stroke="black" stroke-width="1"><path d="
M 262.00 365.00 
C 259.98 363.86 256.02 366.14 254.00 365.00
C 249.50 362.45 261.51 362.34 260.00 360.00
C 257.72 359.95 255.59 360.50 254.00 359.00
C 250.96 356.13 263.41 358.49 262.00 355.00
C 258.33 355.00 254.67 355.00 251.00 355.00
C 251.00 359.00 251.00 363.00 251.00 367.00
C 254.30 366.08 261.07 369.06 262.00 365.00 Z"/>
</g>
<g fill="None" fill-opacity="0.0" stroke="black" stroke-width="1"><path d="
M 254.00 359.00 
C 254.73 357.33 265.80 358.80 262.00 355.00
C 263.41 358.49 250.96 356.13 254.00 359.00 Z"/>
</g>
<g fill="None" fill-opacity="0.0" stroke="black" stroke-width="1"><path d="
M 271.00 368.00 
C 271.23 366.59 270.31 364.67 272.00 364.00
C 272.47 363.81 274.51 363.85 275.00 364.00
C 277.20 364.66 278.13 368.08 281.00 367.00
C 277.16 362.58 284.38 358.30 278.00 355.00
C 276.84 354.61 269.95 354.34 269.00 355.00
C 266.71 358.34 268.64 363.83 268.00 368.00
C 268.79 367.65 270.26 368.44 271.00 368.00
M 278.00 359.00 
C 278.00 361.12 273.28 361.71 272.00 361.00
C 267.31 358.39 278.00 354.14 278.00 359.00 Z"/>
</g>
<g fill="None" fill-opacity="0.0" stroke="black" stroke-width="1"><path d="
M 287.00 360.00 
C 286.56 358.54 287.84 355.82 289.00 355.00
C 286.20 355.73 285.96 358.23 287.00 360.00 Z"/>
</g>
<g fill="None" fill-opacity="0.0" stroke="black" stroke-width="1"><path d="
M 287.00 360.00 
C 287.97 361.65 288.38 361.37 290.00 362.00
C 292.13 362.51 293.36 361.49 295.00 363.00
C 298.03 365.78 288.70 365.00 287.00 365.00
C 286.49 366.41 287.81 367.15 289.00 367.00
C 291.26 366.70 293.77 367.47 296.00 367.00
C 297.67 366.37 298.01 366.69 299.00 365.00
C 299.44 363.54 298.16 360.83 297.00 360.00
C 297.00 360.00 296.49 359.93 296.00 360.00
C 294.56 360.22 288.91 360.09 291.00 358.00
C 293.06 355.94 295.86 358.40 297.00 358.00
C 300.10 356.97 298.81 356.16 297.00 355.00
C 295.23 354.34 291.91 355.00 290.00 355.00
C 290.00 355.00 289.47 354.88 289.00 355.00
C 287.84 355.82 286.56 358.54 287.00 360.00 Z"/>
</g>
<g fill="None" fill-opacity="0.0" stroke="black" stroke-width="1"><path d="
M 317.00 365.00 
C 316.07 369.06 309.30 366.08 306.00 367.00
C 306.00 363.00 306.00 359.00 306.00 355.00
C 306.00 355.00 305.00 354.96 305.00 355.00
C 305.00 359.33 305.00 363.67 305.00 368.00
C 307.03 369.61 320.72 367.11 317.00 365.00 Z"/>
</g>
<g fill="None" fill-opacity="0.0" stroke="black" stroke-width="1"><path d="
M 317.00 365.00 
C 314.98 363.86 311.02 366.14 309.00 365.00
C 304.50 362.45 316.51 362.35 315.00 360.00
C 312.72 359.95 310.59 360.50 309.00 359.00
C 305.96 356.13 318.41 358.49 317.00 355.00
C 313.33 355.00 309.67 355.00 306.00 355.00
C 306.00 359.00 306.00 363.00 306.00 367.00
C 309.30 366.08 316.07 369.06 317.00 365.00 Z"/>
</g>
<g fill="None" fill-opacity="0.0" stroke="black" stroke-width="1"><path d="
M 309.00 359.00 
C 309.73 357.33 320.81 358.81 317.00 355.00
C 318.41 358.49 305.96 356.13 309.00 359.00 Z"/>
</g>
<g fill="None" fill-opacity="0.0" stroke="black" stroke-width="1"><path d="
M 323.00 358.00 
C 322.63 359.22 322.63 362.78 323.00 364.00
C 324.03 366.00 325.11 366.28 327.00 367.00
C 329.37 367.55 332.55 367.00 335.00 367.00
C 335.00 367.00 335.98 367.10 336.00 367.00
C 336.40 365.08 335.70 362.94 336.00 361.00
C 333.11 360.24 332.54 362.72 333.00 365.00
C 327.21 366.12 323.52 360.83 329.00 358.00
C 330.42 357.27 334.95 357.86 336.00 357.00
C 336.39 356.02 335.51 355.45 335.00 355.00
C 333.48 354.39 328.61 354.63 327.00 355.00
C 325.37 355.62 323.63 355.89 323.00 358.00 Z"/>
</g>
<g fill="None" fill-opacity="0.0" stroke="black" stroke-width="1"><path d="
M 343.00 364.00 
C 342.55 362.37 342.32 356.52 343.00 355.00
C 340.59 356.57 342.21 362.18 343.00 364.00 Z"/>
</g>
<g fill="None" fill-opacity="0.0" stroke="black" stroke-width="1"><path d="
M 343.00 364.00 
C 344.04 366.40 343.63 365.97 346.00 367.00
C 347.49 367.39 351.53 367.46 353.00 367.00
C 354.31 366.34 355.31 365.36 356.00 364.00
C 356.00 361.00 356.00 358.00 356.00 355.00
C 355.00 355.00 354.00 355.00 353.00 355.00
C 351.35 357.64 355.07 361.84 352.22 364.22 C 349.37 366.60 347.18 364.28 346.00 362.00
C 344.87 359.81 345.78 357.45 345.00 355.00
C 344.65 354.77 343.35 354.77 343.00 355.00
C 342.32 356.52 342.55 362.37 343.00 364.00 Z"/>
</g>
<g fill="None" fill-opacity="0.0" stroke="black" stroke-width="1"><path d="
M 346.00 362.00 
C 345.21 359.89 347.19 356.43 345.00 355.00
C 345.78 357.45 344.87 359.81 346.00 362.00 Z"/>
</g>
<g fill="None" fill-opacity="0.0" stroke="black" stroke-width="1"><path d="
M 366.00 364.00 
C 364.40 364.22 365.64 367.94 363.00 367.00
C 363.00 363.00 363.00 359.00 363.00 355.00
C 360.71 358.34 362.64 363.83 362.00 368.00
C 364.50 368.64 366.72 366.54 366.00 364.00 Z"/>
</g>
<g fill="None" fill-opacity="0.0" stroke="black" stroke-width="1"><path d="
M 366.00 364.00 
C 369.04 363.58 369.05 364.92 371.00 366.00
C 374.38 367.23 373.43 367.24 374.00 365.00
C 373.95 363.31 374.80 362.42 375.00 361.00
C 375.14 360.00 375.28 357.96 375.00 357.00
C 374.00 355.37 373.64 355.62 372.00 355.00
C 369.14 354.38 365.90 355.47 363.00 355.00
C 363.00 359.00 363.00 363.00 363.00 367.00
C 365.64 367.94 364.40 364.22 366.00 364.00
M 371.00 358.00 
C 374.16 359.30 367.96 362.09 366.00 361.00
C 362.69 359.16 368.26 355.26 371.00 358.00 Z"/>
</g>
<g fill="None" fill-opacity="0.0" stroke="black" stroke-width="1"><path d="
M 384.00 368.00 
C 384.25 367.76 384.00 367.00 384.00 367.00
C 380.30 366.01 382.31 358.46 382.00 355.00
C 382.00 355.00 381.00 354.96 381.00 355.00
C 381.00 359.33 381.00 363.67 381.00 368.00
C 381.97 367.84 383.04 368.20 384.00 368.00 Z"/>
</g>
<g fill="None" fill-opacity="0.0" stroke="black" stroke-width="1"><path d="
M 384.00 367.00 
C 384.00 363.06 383.65 358.93 384.00 355.00
C 383.50 355.00 382.50 355.00 382.00 355.00
C 382.31 358.46 380.30 366.01 384.00 367.00 Z"/>
</g>
<g fill="None" fill-opacity="0.0" stroke="black" stroke-width="1"><path d="
M 384.00 367.00 
C 384.00 367.00 384.25 367.76 384.00 368.00
C 386.12 365.97 385.28 358.11 385.00 355.00
C 385.00 355.00 384.50 355.00 384.00 355.00
C 383.65 358.93 384.00 363.06 384.00 367.00 Z"/>
</g>
<g fill="None" fill-opacity="0.0" stroke="black" stroke-width="1"><path d="
M 400.00 367.00 
C 397.15 367.66 393.88 366.50 391.00 367.00
C 391.00 363.00 391.00 359.00 391.00 355.00
C 384.21 361.79 392.34 369.91 400.00 367.00 Z"/>
</g>
<g fill="None" fill-opacity="0.0" stroke="black" stroke-width="1"><path d="
M 400.00 367.00 
C 401.59 366.40 403.43 366.11 404.00 364.00
C 404.32 362.79 404.22 360.24 404.00 359.00
C 402.96 356.31 402.64 356.08 400.00 355.00
C 397.18 354.29 393.87 355.53 391.00 355.00
C 391.00 359.00 391.00 363.00 391.00 367.00
C 393.88 366.50 397.15 367.66 400.00 367.00
M 398.00 358.00 
C 404.56 361.01 397.71 367.71 394.00 364.00
C 390.50 360.50 393.99 356.16 398.00 358.00 Z"/>
</g>
<g fill="None" fill-opacity="0.0" stroke="black" stroke-width="1"><path d="
M 413.00 357.00 
C 411.46 360.61 409.35 364.06 409.00 368.00
C 413.48 364.50 419.06 364.06 423.00 368.00
C 422.10 364.45 421.01 360.15 419.00 357.00
C 416.78 354.49 415.21 354.62 413.00 357.00
M 418.00 362.00 
C 416.99 364.56 410.59 361.86 415.00 360.00
C 416.21 358.72 418.60 360.48 418.00 362.00 Z"/>
</g>
<g fill="None" fill-opacity="0.0" stroke="black" stroke-width="1"><path d="
M 430.00 368.00 
C 429.96 368.00 430.00 367.00 430.00 367.00
C 427.75 363.96 429.62 358.81 429.00 355.00
C 427.38 356.62 426.58 367.27 430.00 368.00 Z"/>
</g>
<g fill="None" fill-opacity="0.0" stroke="black" stroke-width="1"><path d="
M 430.00 367.00 
C 432.55 366.77 435.52 367.58 438.00 367.00
C 439.63 366.38 441.37 366.11 442.00 364.00
C 442.37 362.78 442.37 359.22 442.00 358.00
C 440.97 356.00 439.89 355.72 438.00 355.00
C 435.15 354.34 431.88 355.50 429.00 355.00
C 429.62 358.81 427.75 363.96 430.00 367.00
M 437.00 358.00 
C 442.65 360.00 436.48 367.74 432.00 365.00
C 432.00 362.67 432.00 360.33 432.00 358.00
C 433.31 356.14 435.65 357.07 437.00 358.00 Z"/>
</g>
<g fill="None" fill-opacity="0.0" stroke="black" stroke-width="1"><path d="
M 134.00 360.00 
C 134.14 359.35 138.58 357.33 138.00 356.00
C 137.96 355.87 134.12 359.15 134.00 360.00 Z"/>
</g>
<g fill="None" fill-opacity="0.0" stroke="black" stroke-width="1"><path d="
M 183.00 358.00 
C 181.41 356.49 179.53 358.04 178.00 357.00
C 178.75 358.95 181.45 357.60 183.00 358.00 Z"/>
</g>
<g fill="None" fill-opacity="0.0" stroke="black" stroke-width="1"><path d="
M 235.00 358.00 
C 236.67 358.00 238.33 358.00 240.00 358.00
C 238.53 356.62 236.49 356.60 235.00 358.00 Z"/>
</g>
<g fill="None" fill-opacity="0.0" stroke="black" stroke-width="1"><path d="
M 272.00 361.00 
C 272.00 360.00 272.00 359.00 272.00 358.00
C 274.12 357.94 276.23 357.77 278.00 359.00
C 278.00 354.14 267.31 358.39 272.00 361.00 Z"/>
</g>
<g fill="None" fill-opacity="0.0" stroke="black" stroke-width="1"><path d="
M 291.00 358.00 
C 292.85 357.55 295.20 358.60 297.00 358.00
C 295.86 358.40 293.06 355.94 291.00 358.00 Z"/>
</g>
<g fill="None" fill-opacity="0.0" stroke="black" stroke-width="1"><path d="
M 329.00 358.00 
C 330.75 357.35 335.13 359.22 336.00 357.00
C 334.95 357.86 330.42 357.27 329.00 358.00 Z"/>
</g>
<g fill="None" fill-opacity="0.0" stroke="black" stroke-width="1"><path d="
M 366.00 361.00 
C 364.67 358.01 369.06 357.20 371.00 358.00
C 368.26 355.26 362.69 359.16 366.00 361.00 Z"/>
</g>
<g fill="None" fill-opacity="0.0" stroke="black" stroke-width="1"><path d="
M 375.00 361.00 
C 375.57 359.13 376.25 359.04 375.00 357.00
C 375.28 357.96 375.14 360.00 375.00 361.00 Z"/>
</g>
<g fill="None" fill-opacity="0.0" stroke="black" stroke-width="1"><path d="
M 394.00 364.00 
C 393.09 362.59 394.69 359.56 394.00 358.00
C 395.33 358.00 396.67 358.00 398.00 358.00
C 393.99 356.16 390.50 360.50 394.00 364.00 Z"/>
</g>
<g fill="None" fill-opacity="0.0" stroke="black" stroke-width="1"><path d="
M 432.00 358.00 
C 433.53 358.40 435.52 357.48 437.00 358.00
C 435.65 357.07 433.31 356.14 432.00 358.00 Z"/>
</g>
<g fill="None" fill-opacity="0.0" stroke="black" stroke-width="1"><path d="
M 167.00 360.00 
C 167.07 358.00 170.10 360.71 170.00 361.00
C 171.74 358.81 166.23 357.23 167.00 360.00 Z"/>
</g>
<g fill="None" fill-opacity="0.0" stroke="black" stroke-width="1"><path d="
M 186.00 368.00 
C 186.00 368.00 186.00 367.50 186.00 367.00
C 181.78 365.87 185.69 360.56 183.00 358.00
C 183.00 361.33 183.00 364.67 183.00 368.00
C 183.97 367.84 185.04 368.20 186.00 368.00 Z"/>
</g>
<g fill="None" fill-opacity="0.0" stroke="black" stroke-width="1"><path d="
M 208.00 363.00 
C 207.60 361.84 207.93 358.80 209.00 358.00
C 206.84 359.54 206.55 360.88 208.00 363.00 Z"/>
</g>
<g fill="None" fill-opacity="0.0" stroke="black" stroke-width="1"><path d="
M 240.00 358.00 
C 239.26 359.39 235.68 359.65 235.00 358.00
C 232.35 360.48 243.45 361.24 240.00 358.00 Z"/>
</g>
<g fill="None" fill-opacity="0.0" stroke="black" stroke-width="1"><path d="
M 240.00 358.00 
C 238.33 358.00 236.67 358.00 235.00 358.00
C 235.68 359.65 239.26 359.39 240.00 358.00 Z"/>
</g>
<g fill="None" fill-opacity="0.0" stroke="black" stroke-width="1"><path d="
M 272.00 361.00 
C 273.28 361.71 278.00 361.12 278.00 359.00
C 276.23 357.77 274.12 357.94 272.00 358.00
C 272.00 359.00 272.00 360.00 272.00 361.00 Z"/>
</g>
<g fill="None" fill-opacity="0.0" stroke="black" stroke-width="1"><path d="
M 296.00 360.00 
C 294.53 359.25 292.32 359.07 291.00 358.00
C 288.91 360.09 294.56 360.22 296.00 360.00 Z"/>
</g>
<g fill="None" fill-opacity="0.0" stroke="black" stroke-width="1"><path d="
M 323.00 364.00 
C 322.63 362.78 322.63 359.22 323.00 358.00
C 321.83 360.25 321.81 361.71 323.00 364.00 Z"/>
</g>
<g fill="None" fill-opacity="0.0" stroke="black" stroke-width="1"><path d="
M 366.00 361.00 
C 367.96 362.09 374.16 359.30 371.00 358.00
C 369.06 357.20 364.67 358.01 366.00 361.00 Z"/>
</g>
<g fill="None" fill-opacity="0.0" stroke="black" stroke-width="1"><path d="
M 394.00 364.00 
C 397.71 367.71 404.56 361.01 398.00 358.00
C 396.67 358.00 395.33 358.00 394.00 358.00
C 394.69 359.56 393.09 362.59 394.00 364.00 Z"/>
</g>
<g fill="None" fill-opacity="0.0" stroke="black" stroke-width="1"><path d="
M 437.00 358.00 
C 435.52 357.48 433.53 358.40 432.00 358.00
C 432.00 360.33 432.00 362.67 432.00 365.00
C 436.48 367.74 442.65 360.00 437.00 358.00 Z"/>
</g>
<g fill="None" fill-opacity="0.0" stroke="black" stroke-width="1"><path d="
M 442.00 364.00 
C 443.17 361.75 443.19 360.29 442.00 358.00
C 442.37 359.22 442.37 362.78 442.00 364.00 Z"/>
</g>
<g fill="None" fill-opacity="0.0" stroke="black" stroke-width="1"><path d="
M 108.00 360.00 
C 108.00 360.00 108.76 359.75 109.00 360.00
C 107.27 358.20 104.46 359.27 102.00 359.00
C 103.44 360.36 105.86 360.23 108.00 360.00 Z"/>
</g>
<g fill="None" fill-opacity="0.0" stroke="black" stroke-width="1"><path d="
M 167.00 360.00 
C 167.35 361.26 169.11 363.52 170.00 361.00
C 170.10 360.71 167.07 358.00 167.00 360.00 Z"/>
</g>
<g fill="None" fill-opacity="0.0" stroke="black" stroke-width="1"><path d="
M 260.00 360.00 
C 258.41 358.48 256.27 359.06 254.00 359.00
C 255.59 360.50 257.72 359.95 260.00 360.00 Z"/>
</g>
<g fill="None" fill-opacity="0.0" stroke="black" stroke-width="1"><path d="
M 315.00 360.00 
C 313.41 358.48 311.27 359.06 309.00 359.00
C 310.59 360.50 312.72 359.95 315.00 360.00 Z"/>
</g>
<g fill="None" fill-opacity="0.0" stroke="black" stroke-width="1"><path d="
M 404.00 364.00 
C 405.13 361.79 404.85 361.21 404.00 359.00
C 404.22 360.24 404.32 362.79 404.00 364.00 Z"/>
</g>
<g fill="None" fill-opacity="0.0" stroke="black" stroke-width="1"><path d="
M 415.00 360.00 
C 412.85 362.28 416.46 362.06 418.00 362.00
C 418.60 360.48 416.21 358.72 415.00 360.00 Z"/>
</g>
<g fill="None" fill-opacity="0.0" stroke="black" stroke-width="1"><path d="
M 254.00 365.00 
C 252.84 361.64 264.04 363.86 260.00 360.00
C 261.51 362.34 249.50 362.45 254.00 365.00 Z"/>
</g>
<g fill="None" fill-opacity="0.0" stroke="black" stroke-width="1"><path d="
M 299.00 365.00 
C 300.04 363.24 299.88 360.75 297.00 360.00
C 298.16 360.83 299.44 363.54 299.00 365.00 Z"/>
</g>
<g fill="None" fill-opacity="0.0" stroke="black" stroke-width="1"><path d="
M 309.00 365.00 
C 307.84 361.64 319.04 363.86 315.00 360.00
C 316.51 362.35 304.50 362.45 309.00 365.00 Z"/>
</g>
<g fill="None" fill-opacity="0.0" stroke="black" stroke-width="1"><path d="
M 418.00 362.00 
C 416.46 362.06 412.85 362.28 415.00 360.00
C 410.59 361.86 416.99 364.56 418.00 362.00 Z"/>
</g>
<g fill="None" fill-opacity="0.0" stroke="black" stroke-width="1"><path d="
M 336.00 367.00 
C 337.13 365.90 337.93 361.94 336.00 361.00
C 335.70 362.94 336.40 365.08 336.00 367.00 Z"/>
</g>
<g fill="None" fill-opacity="0.0" stroke="black" stroke-width="1"><path d="
M 125.00 366.00 
C 126.03 365.28 128.93 363.57 129.00 362.00
C 128.94 362.47 125.48 365.01 125.00 366.00 Z"/>
</g>
<g fill="None" fill-opacity="0.0" stroke="black" stroke-width="1"><path d="
M 234.00 363.00 
C 235.82 363.49 238.25 362.34 240.00 363.00
C 239.10 362.10 234.55 360.88 234.00 363.00 Z"/>
</g>
<g fill="None" fill-opacity="0.0" stroke="black" stroke-width="1"><path d="
M 295.00 363.00 
C 293.36 361.49 292.13 362.51 290.00 362.00
C 291.33 362.52 293.00 363.70 295.00 363.00 Z"/>
</g>
<g fill="None" fill-opacity="0.0" stroke="black" stroke-width="1"><path d="
M 240.00 363.00 
C 238.25 362.34 235.82 363.49 234.00 363.00
C 233.35 365.54 243.31 366.31 240.00 363.00 Z"/>
</g>
<g fill="None" fill-opacity="0.0" stroke="black" stroke-width="1"><path d="
M 289.00 368.00 
C 288.91 367.98 289.00 367.00 289.00 367.00
C 287.81 367.15 286.49 366.41 287.00 365.00
C 288.70 365.00 298.03 365.78 295.00 363.00
C 292.98 365.22 288.84 363.41 286.00 364.00
C 285.59 366.26 286.71 367.98 289.00 368.00 Z"/>
</g>
<g fill="None" fill-opacity="0.0" stroke="black" stroke-width="1"><path d="
M 130.00 365.00 
C 132.06 364.99 133.42 366.86 135.00 368.00
C 134.98 368.00 135.00 367.00 135.00 367.00
C 133.17 365.05 131.82 364.59 130.00 365.00 Z"/>
</g>
<g fill="None" fill-opacity="0.0" stroke="black" stroke-width="1"><path d="
M 135.00 367.00 
C 135.00 367.00 134.98 368.00 135.00 368.00
C 136.00 368.00 137.00 368.00 138.00 368.00
C 138.85 365.73 135.71 365.26 135.00 364.00
C 135.77 365.97 137.81 366.36 135.00 367.00 Z"/>
</g>
<g fill="None" fill-opacity="0.0" stroke="black" stroke-width="1"><path d="
M 214.00 365.00 
C 215.19 364.85 216.51 365.60 216.00 367.00
C 213.45 366.53 210.51 367.63 208.00 367.00
C 212.32 368.76 220.78 366.41 214.00 365.00 Z"/>
</g>
<g fill="None" fill-opacity="0.0" stroke="black" stroke-width="1"><path d="
M 271.00 368.00 
C 272.67 367.02 271.08 364.65 272.00 364.00
C 270.31 364.67 271.23 366.59 271.00 368.00 Z"/>
</g>
<g fill="None" fill-opacity="0.0" stroke="black" stroke-width="1"><path d="
M 281.00 367.00 
C 278.13 368.08 277.20 364.66 275.00 364.00
C 276.47 364.65 278.72 370.58 281.00 367.00 Z"/>
</g>
<g fill="None" fill-opacity="0.0" stroke="black" stroke-width="1"><path d="
M 125.00 367.00 
C 126.90 368.96 128.94 367.17 130.00 365.00
C 127.91 365.47 127.61 367.43 125.00 367.00 Z"/>
</g>
<g fill="None" fill-opacity="0.0" stroke="black" stroke-width="1"><path d="
M 371.00 366.00 
C 371.54 368.26 374.17 368.12 376.00 368.00
C 377.25 366.55 374.02 365.48 374.00 365.00
C 373.43 367.24 374.38 367.23 371.00 366.00 Z"/>
</g>
<g fill="None" fill-opacity="0.0" stroke="black" stroke-width="1"><path d="
M 175.00 366.00 
C 174.03 367.76 173.32 366.34 172.00 366.00
C 174.31 366.68 175.09 369.75 175.00 366.00 Z"/>
</g>
<g fill="None" fill-opacity="0.0" stroke="black" stroke-width="1"><path d="
M 242.00 367.00 
C 239.02 368.43 234.15 365.93 231.00 367.00
C 232.96 368.96 239.90 368.50 242.00 367.00 Z"/>
</g>
<g fill="None" fill-opacity="0.0" stroke="black" stroke-width="1"><path d="
M 289.00 368.00 
C 291.58 368.47 294.06 367.74 296.00 367.00
C 293.77 367.47 291.26 366.70 289.00 367.00
C 289.00 367.00 288.91 367.98 289.00 368.00 Z"/>
</g>
<g fill="None" fill-opacity="0.0" stroke="black" stroke-width="1"><path d="
M 335.00 367.00 
C 332.55 367.00 329.37 367.55 327.00 367.00
C 329.39 367.91 332.55 368.81 335.00 367.00 Z"/>
</g>
<g fill="None" fill-opacity="0.0" stroke="black" stroke-width="1"><path d="
M 353.00 367.00 
C 351.53 367.46 347.49 367.39 346.00 367.00
C 348.49 368.08 350.45 368.29 353.00 367.00 Z"/>
</g>
<g fill="None" fill-opacity="0.0" stroke="black" stroke-width="1"><path d="
M 430.00 368.00 
C 432.95 368.27 435.69 367.88 438.00 367.00
C 435.52 367.58 432.55 366.77 430.00 367.00
C 430.00 367.00 429.96 368.00 430.00 368.00 Z"/>
</g>
<g fill="None" fill-opacity="0.0" stroke="black" stroke-width="1"><path d="
M 221.00 396.00 
C 223.83 393.31 232.63 397.08 237.00 396.00 C 241.37 394.92 249.04 396.40 254.00 396.00 C 258.96 395.60 265.93 395.99 271.00 396.00 C 276.07 396.01 282.12 395.50 287.00 396.00 C 291.88 396.50 299.66 394.77 304.00 396.00 C 308.34 397.23 318.08 393.23 321.00 396.00
C 319.72 392.75 308.95 395.78 305.00 395.00 C 301.05 394.22 292.77 395.29 288.00 395.00 C 283.23 394.71 275.99 395.00 271.00 395.00 C 266.01 395.00 258.75 394.71 254.00 395.00 C 249.25 395.29 240.92 394.22 237.00 395.00 C 233.08 395.78 222.28 392.75 221.00 396.00 Z"/>
</g>
<g fill="None" fill-opacity="0.0" stroke="black" stroke-width="1"><path d="
M 222.00 398.00 
C 228.82 400.72 238.50 397.04 246.00 398.00 C 253.50 398.96 263.33 398.01 271.00 398.00 C 278.67 397.99 287.49 399.10 295.00 398.00 C 302.51 396.90 313.06 400.77 320.00 398.00
C 320.33 397.72 321.86 396.82 321.00 396.00
C 318.08 393.23 308.34 397.23 304.00 396.00 C 299.66 394.77 291.88 396.50 287.00 396.00 C 282.12 395.50 276.07 396.01 271.00 396.00 C 265.93 395.99 258.96 395.60 254.00 396.00 C 249.04 396.40 241.37 394.92 237.00 396.00 C 232.63 397.08 223.83 393.31 221.00 396.00
C 220.61 396.98 221.49 397.55 222.00 398.00 Z"/>
</g>
<g fill="None" fill-opacity="0.0" stroke="black" stroke-width="1"><path d="
M 320.00 398.00 
C 313.06 400.77 302.51 396.90 295.00 398.00 C 287.49 399.10 278.67 397.99 271.00 398.00 C 263.33 398.01 253.50 398.96 246.00 398.00 C 238.50 397.04 228.82 400.72 222.00 398.00
C 226.88 402.24 239.12 397.97 246.00 399.00 C 252.88 400.03 263.76 399.01 271.00 399.00 C 278.24 398.99 289.13 400.05 296.00 399.00 C 302.87 397.95 315.09 402.27 320.00 398.00 Z"/>
</g>
</svg>